#!OML:ASF G:\JayActor3\Patient Classification 1\Patient 1\Session 2\male.ASF
:FULLY-SPECIFIED
:DEGREES
3047
root -36.2421 16.0808 -6.66127 722.488 -3.65332 -1438.14
lowerback 13.8959 4.24047 5.3926
upperback 8.35447 6.16435 0.084078
thorax 1.64977 3.29397 -3.64041
lowerneck 1.20953 17.1257 11.0647
upperneck -2.48684 23.1333 -15.1778
head 2.12607 11.6468 -5.25585
rclavicle 2.10712e-014 1.27222e-014
rhumerus -36.4986 6.76289 -79.9736
rradius 80.5289
rwrist 6.23996
rhand -46.5024 25.4494
rfingers 7.12502
rthumb -19.2288 -3.62002
lclavicle 2.10712e-014 1.27222e-014
lhumerus 19.0382 -55.2298 62.0952
lradius 95.4026
lwrist 17.1328
lhand -33.4273 9.10889
lfingers 7.12502
lthumb -6.62676 38.9852
rfemur -22.2259 9.13593 5.22679
rtibia 44.9869
rfoot -24.2359 -4.52524
rtoes -9.90199
lfemur -26.8297 -9.99345 -16.8982
ltibia 44.8375
lfoot -10.6044 -21.1104
ltoes 4.17928
3048
root -36.3752 16.0978 -6.66949 722.545 -1.65025 -1438.13
lowerback 13.8077 4.27038 5.47097
upperback 8.32956 6.21817 0.0959396
thorax 1.68328 3.328 -3.66961
lowerneck 1.15633 17.0594 11.1547
upperneck -2.38066 23.0542 -15.2587
head 2.17672 11.6033 -5.28531
rclavicle 3.37934e-014 -1.82882e-014
rhumerus -36.5133 7.0226 -79.7106
rradius 80.48
rwrist 6.27754
rhand -46.3892 25.4207
rfingers 7.12502
rthumb -19.12 -3.65946
lclavicle 3.37934e-014 -1.82882e-014
lhumerus 18.1994 -55.0991 62.4258
lradius 95.5887
lwrist 17.337
lhand -33.6999 9.23163
lfingers 7.12502
lthumb -6.88987 39.0995
rfemur -21.6126 8.02301 5.8861
rtibia 45.1055
rfoot -24.7091 -5.41465
rtoes -9.55224
lfemur -27.0758 -10.2471 -16.7617
ltibia 44.8695
lfoot -10.5623 -20.4751
ltoes 2.60661
3049
root -36.5074 16.1157 -6.67466 722.637 0.454953 -1438.18
lowerback 13.6285 4.26702 5.58854
upperback 8.31425 6.22745 0.146729
thorax 1.77081 3.34191 -3.66646
lowerneck 1.10664 16.9717 11.2514
upperneck -2.34554 22.9408 -15.3581
head 2.20442 11.5445 -5.3283
rclavicle -1.47101e-014 1.19271e-014
rhumerus -36.5087 7.20683 -79.4121
rradius 80.4345
rwrist 6.32005
rhand -46.2633 25.4149
rfingers 7.12502
rthumb -18.9989 -3.6772
lclavicle -1.47101e-014 1.19271e-014
lhumerus 17.3872 -54.9473 62.7529
lradius 95.69
lwrist 17.5399
lhand -33.9842 9.35729
lfingers 7.12502
lthumb -7.1643 39.216
rfemur -20.9892 6.83694 6.60901
rtibia 45.1374
rfoot -25.1705 -6.35559
rtoes -9.06831
lfemur -27.4159 -10.437 -16.6044
ltibia 44.9845
lfoot -10.5148 -19.7334
ltoes 1.04896
3050
root -36.639 16.1342 -6.67743 722.753 2.64253 -1438.31
lowerback 13.3876 4.23789 5.75262
upperback 8.29596 6.20387 0.238486
thorax 1.88534 3.34068 -3.63765
lowerneck 1.03016 16.8693 11.3425
upperneck -2.33391 22.8031 -15.4502
head 2.22456 11.4731 -5.37028
rclavicle -6.08281e-014 2.22639e-014
rhumerus -36.5091 7.31666 -79.0961
rradius 80.3918
rwrist 6.37178
rhand -46.1427 25.4431
rfingers 7.12502
rthumb -18.8829 -3.66031
lclavicle -6.08281e-014 2.22639e-014
lhumerus 16.5952 -54.7775 63.0937
lradius 95.7022
lwrist 17.7004
lhand -34.2237 9.49186
lfingers 7.12502
lthumb -7.3955 39.3426
rfemur -20.3656 5.62725 7.41824
rtibia 45.0853
rfoot -25.6377 -7.32402
rtoes -8.36032
lfemur -27.8498 -10.4973 -16.4139
ltibia 45.1879
lfoot -10.4305 -18.9109
ltoes -0.343107
3051
root -36.7708 16.1534 -6.67769 722.86 4.8893 -1438.51
lowerback 13.131 4.19021 5.94335
upperback 8.26777 6.15681 0.366496
thorax 1.99416 3.32723 -3.58308
lowerneck 0.944632 16.7638 11.4386
upperneck -2.35596 22.6562 -15.5204
head 2.23248 11.3973 -5.40905
rclavicle 1.19271e-014 3.73715e-014
rhumerus -36.521 7.29132 -78.7866
rradius 80.3414
rwrist 6.4574
rhand -46.0255 25.5233
rfingers 7.12502
rthumb -18.7702 -3.59113
lclavicle 1.19271e-014 3.73715e-014
lhumerus 15.8077 -54.603 63.4475
lradius 95.6441
lwrist 17.7967
lhand -34.3788 9.59975
lfingers 7.12502
lthumb -7.54516 39.4452
rfemur -19.7252 4.42075 8.31035
rtibia 44.9548
rfoot -26.1144 -8.32458
rtoes -7.54881
lfemur -28.3435 -10.4018 -16.2021
ltibia 45.4783
lfoot -10.267 -18.0324
ltoes -1.40419
3052
root -36.9037 16.173 -6.67505 722.934 7.17714 -1438.77
lowerback 12.892 4.12919 6.14148
upperback 8.22373 6.09299 0.523401
thorax 2.07259 3.3035 -3.50408
lowerneck 0.849751 16.6445 11.4544
upperneck -2.39837 22.4837 -15.5108
head 2.21349 11.3091 -5.42051
rclavicle 7.03698e-014 -3.65764e-014
rhumerus -36.5744 7.21568 -78.4993
rradius 80.2893
rwrist 6.54376
rhand -45.9505 25.6175
rfingers 7.12502
rthumb -18.6981 -3.50383
lclavicle 7.03698e-014 -3.65764e-014
lhumerus 15.0119 -54.428 63.816
lradius 95.5231
lwrist 17.807
lhand -34.4291 9.66694
lfingers 7.12502
lthumb -7.59372 39.5106
rfemur -19.0593 3.26165 9.27448
rtibia 44.7571
rfoot -26.6228 -9.34188
rtoes -6.56738
lfemur -28.8666 -10.1215 -15.9973
ltibia 45.8529
lfoot -10.0773 -17.0648
ltoes -2.26551
3053
root -37.038 16.1932 -6.66955 722.956 9.48824 -1439.07
lowerback 12.7027 4.06162 6.3356
upperback 8.16306 6.02262 0.695327
thorax 2.10398 3.27403 -3.41266
lowerneck 0.742074 16.5021 11.3739
upperneck -2.45022 22.2725 -15.394
head 2.16491 11.2013 -5.39567
rclavicle 7.196e-014 1.82882e-014
rhumerus -36.6758 7.0922 -78.2481
rradius 80.2425
rwrist 6.59747
rhand -45.8802 25.7295
rfingers 7.12502
rthumb -18.6305 -3.39837
lclavicle 7.196e-014 1.82882e-014
lhumerus 14.2132 -54.2734 64.1808
lradius 95.3638
lwrist 17.7623
lhand -34.3674 9.69895
lfingers 7.12502
lthumb -7.53419 39.5448
rfemur -18.3626 2.1781 10.2955
rtibia 44.5044
rfoot -27.1584 -10.4053
rtoes -5.55468
lfemur -29.3944 -9.64567 -15.8182
ltibia 46.3049
lfoot -9.86701 -16.0007
ltoes -3.08186
3054
root -37.1729 16.213 -6.6609 722.921 11.8147 -1439.38
lowerback 12.5714 3.98776 6.5118
upperback 8.08419 5.94598 0.870123
thorax 2.08191 3.23852 -3.31458
lowerneck 0.628301 16.3516 11.2693
upperneck -2.49057 22.0488 -15.2198
head 2.10982 11.0866 -5.35249
rclavicle 7.95139e-015 -1.51076e-014
rhumerus -36.8333 6.95551 -78.0323
rradius 80.2066
rwrist 6.64542
rhand -45.787 25.8355
rfingers 7.12502
rthumb -18.5408 -3.30087
lclavicle 7.95139e-015 -1.51076e-014
lhumerus 13.411 -54.1394 64.5348
lradius 95.1765
lwrist 17.6852
lhand -34.2241 9.69937
lfingers 7.12502
lthumb -7.3959 39.5501
rfemur -17.6448 1.14024 11.3377
rtibia 44.2127
rfoot -27.7238 -11.4712
rtoes -4.46626
lfemur -29.9126 -8.9822 -15.7096
ltibia 46.8287
lfoot -9.74206 -14.7371
ltoes -4.35896
3055
root -37.307 16.2325 -6.64949 722.855 14.1548 -1439.68
lowerback 12.4631 3.91123 6.686
upperback 7.99918 5.86712 1.02342
thorax 2.04321 3.20172 -3.2401
lowerneck 0.495278 16.1811 11.1429
upperneck -2.53618 21.7943 -14.9976
head 2.04486 10.9557 -5.2951
rclavicle -3.18055e-015 -3.97569e-015
rhumerus -37.0224 6.80774 -77.8632
rradius 80.1847
rwrist 6.68353
rhand -45.699 25.9135
rfingers 7.12502
rthumb -18.4562 -3.231
lclavicle -3.18055e-015 -3.97569e-015
lhumerus 12.645 -54.0202 64.8558
lradius 94.9604
lwrist 17.5665
lhand -34.0102 9.65913
lfingers 7.12502
lthumb -7.18943 39.517
rfemur -16.9377 0.147977 12.3676
rtibia 43.897
rfoot -28.3355 -12.5121
rtoes -3.2197
lfemur -30.4421 -8.16392 -15.6939
ltibia 47.4157
lfoot -9.63927 -13.2566
ltoes -5.8771
3056
root -37.4384 16.251 -6.6356 722.769 16.4985 -1439.95
lowerback 12.3638 3.82218 6.84512
upperback 7.91137 5.77076 1.15887
thorax 1.99513 3.15566 -3.17561
lowerneck 0.333401 15.982 10.9214
upperneck -2.56257 21.4983 -14.7044
head 1.96748 10.8031 -5.20745
rclavicle 4.6118e-014 2.94201e-014
rhumerus -37.2338 6.73909 -77.7314
rradius 80.1871
rwrist 6.68315
rhand -45.6143 25.9611
rfingers 7.12502
rthumb -18.3747 -3.19104
lclavicle 4.6118e-014 2.94201e-014
lhumerus 11.8726 -53.8989 65.1811
lradius 94.7415
lwrist 17.5066
lhand -33.8938 9.63863
lfingers 7.12502
lthumb -7.07707 39.5003
rfemur -16.2599 -0.827274 13.358
rtibia 43.5694
rfoot -28.9701 -13.5212
rtoes -1.94205
lfemur -30.9847 -7.2165 -15.7945
ltibia 48.0605
lfoot -9.55894 -11.5251
ltoes -7.43951
3057
root -37.5659 16.2683 -6.62001 722.686 18.8518 -1440.19
lowerback 12.2559 3.71904 6.9947
upperback 7.82118 5.65399 1.26818
thorax 1.94894 3.09963 -3.13093
lowerneck 0.138536 15.7531 10.6416
upperneck -2.5612 21.1613 -14.3616
head 1.88838 10.6287 -5.09827
rclavicle -2.0276e-014 8.74653e-015
rhumerus -37.4579 6.74438 -77.6362
rradius 80.2172
rwrist 6.63479
rhand -45.531 25.9967
rfingers 7.12502
rthumb -18.2946 -3.16301
lclavicle -2.0276e-014 8.74653e-015
lhumerus 11.0957 -53.7627 65.5153
lradius 94.5131
lwrist 17.4624
lhand -33.8528 9.58505
lfingers 7.12502
lthumb -7.03752 39.4481
rfemur -15.6335 -1.79854 14.2877
rtibia 43.2442
rfoot -29.646 -14.449
rtoes -0.52001
lfemur -31.5509 -6.19252 -16.0201
ltibia 48.7481
lfoot -9.42593 -9.57799
ltoes -8.59871
